<mxfile host="app.diagrams.net" agent="Mozilla/5.0 (X11; Linux x86_64) AppleWebKit/537.36 (KHTML, like Gecko) Chrome/134.0.0.0 Safari/537.36" version="26.1.3">
  <diagram name="Page-1" id="03018318-947c-dd8e-b7a3-06fadd420f32">
    <mxGraphModel dx="2722" dy="945" grid="1" gridSize="10" guides="1" tooltips="1" connect="1" arrows="1" fold="1" page="1" pageScale="1" pageWidth="1100" pageHeight="850" background="#ffffff" math="0" shadow="0">
      <root>
        <mxCell id="0" />
        <mxCell id="1" parent="0" />
        <mxCell id="P_YrPQooRFVnnNei9Mit-43" value="" style="strokeWidth=1;shadow=0;dashed=0;align=center;html=1;shape=mxgraph.mockup.containers.browserWindow;rSize=0;strokeColor=#666666;strokeColor2=#008cff;strokeColor3=#c4c4c4;mainText=,;recursiveResize=0;gradientColor=default;fillColor=default;" vertex="1" parent="1">
          <mxGeometry x="-10" y="180" width="1030" height="2000" as="geometry" />
        </mxCell>
        <mxCell id="P_YrPQooRFVnnNei9Mit-44" value="&lt;font style=&quot;font-size: 11px;&quot;&gt;Terrifier Terror Park&lt;/font&gt;" style="strokeWidth=1;shadow=0;dashed=0;align=center;html=1;shape=mxgraph.mockup.containers.anchor;fontSize=17;fontColor=#666666;align=left;whiteSpace=wrap;spacingBottom=-12;" vertex="1" parent="P_YrPQooRFVnnNei9Mit-43">
          <mxGeometry x="60" y="12" width="100" height="18" as="geometry" />
        </mxCell>
        <mxCell id="P_YrPQooRFVnnNei9Mit-45" value="https://www.draw.io" style="strokeWidth=1;shadow=0;dashed=0;align=center;html=1;shape=mxgraph.mockup.containers.anchor;rSize=0;fontSize=17;fontColor=#666666;align=left;" vertex="1" parent="P_YrPQooRFVnnNei9Mit-43">
          <mxGeometry x="130" y="60" width="250" height="26" as="geometry" />
        </mxCell>
        <mxCell id="P_YrPQooRFVnnNei9Mit-48" value="" style="strokeWidth=1;shadow=0;dashed=0;align=center;html=1;shape=mxgraph.mockup.forms.anchor;align=right;spacingRight=2;fontColor=#666666;" vertex="1" parent="P_YrPQooRFVnnNei9Mit-43">
          <mxGeometry x="230" y="495" width="50" height="18" as="geometry" />
        </mxCell>
        <mxCell id="P_YrPQooRFVnnNei9Mit-50" value="" style="strokeWidth=1;shadow=0;dashed=0;align=center;html=1;shape=mxgraph.mockup.forms.anchor;align=right;spacingRight=2;fontColor=#666666;" vertex="1" parent="P_YrPQooRFVnnNei9Mit-43">
          <mxGeometry x="230" y="530" width="50" height="18" as="geometry" />
        </mxCell>
        <mxCell id="P_YrPQooRFVnnNei9Mit-52" value="" style="strokeWidth=1;shadow=0;dashed=0;align=center;html=1;shape=mxgraph.mockup.forms.anchor;align=right;spacingRight=2;fontColor=#666666;" vertex="1" parent="P_YrPQooRFVnnNei9Mit-43">
          <mxGeometry x="230" y="565" width="50" height="18" as="geometry" />
        </mxCell>
        <mxCell id="P_YrPQooRFVnnNei9Mit-54" value="" style="strokeWidth=1;shadow=0;dashed=0;align=center;html=1;shape=mxgraph.mockup.forms.anchor;align=right;spacingRight=2;fontColor=#666666;" vertex="1" parent="P_YrPQooRFVnnNei9Mit-43">
          <mxGeometry x="230" y="600" width="50" height="18" as="geometry" />
        </mxCell>
        <mxCell id="P_YrPQooRFVnnNei9Mit-57" value="" style="verticalLabelPosition=bottom;shadow=0;dashed=0;align=center;html=1;verticalAlign=top;strokeWidth=1;shape=mxgraph.mockup.graphics.simpleIcon;strokeColor=#999999;movable=1;resizable=1;rotatable=1;deletable=1;editable=1;locked=0;connectable=1;" vertex="1" parent="P_YrPQooRFVnnNei9Mit-43">
          <mxGeometry x="50" y="170" width="230" height="90" as="geometry" />
        </mxCell>
        <mxCell id="P_YrPQooRFVnnNei9Mit-88" value="&lt;font style=&quot;font-size: 25px;&quot;&gt;LOGO&lt;/font&gt;" style="text;html=1;align=center;verticalAlign=middle;whiteSpace=wrap;rounded=0;movable=1;resizable=1;rotatable=1;deletable=1;editable=1;locked=0;connectable=1;" vertex="1" parent="P_YrPQooRFVnnNei9Mit-43">
          <mxGeometry x="60" y="190" width="200" height="50" as="geometry" />
        </mxCell>
        <mxCell id="P_YrPQooRFVnnNei9Mit-107" value="" style="verticalLabelPosition=bottom;shadow=0;dashed=0;align=center;html=1;verticalAlign=top;strokeWidth=1;shape=mxgraph.mockup.containers.videoPlayer;strokeColor=#666666;strokeColor2=#008cff;strokeColor3=#c4c4c4;textColor=#666666;fillColor2=#008cff;barHeight=30;barPos=20;" vertex="1" parent="P_YrPQooRFVnnNei9Mit-43">
          <mxGeometry x="10" y="324" width="1000" height="360" as="geometry" />
        </mxCell>
        <mxCell id="P_YrPQooRFVnnNei9Mit-108" value="" style="swimlane;shape=mxgraph.bootstrap.anchor;strokeColor=#666666;fillColor=#ffffff;fontColor=#0000FF;fontStyle=0;childLayout=stackLayout;horizontal=0;startSize=0;horizontalStack=1;resizeParent=1;resizeParentMax=0;resizeLast=0;collapsible=0;marginBottom=0;whiteSpace=wrap;html=1;" vertex="1" parent="P_YrPQooRFVnnNei9Mit-43">
          <mxGeometry x="500" y="235" width="500" height="25" as="geometry" />
        </mxCell>
        <mxCell id="P_YrPQooRFVnnNei9Mit-109" value="Button 1" style="text;strokeColor=#008CFF;align=center;verticalAlign=middle;spacingLeft=10;spacingRight=10;overflow=hidden;points=[[0,0.5],[1,0.5]];portConstraint=eastwest;rotatable=0;whiteSpace=wrap;html=1;fillColor=#008CFF;fontColor=#ffffff;fontSize=17;" vertex="1" parent="P_YrPQooRFVnnNei9Mit-108">
          <mxGeometry width="125" height="25" as="geometry" />
        </mxCell>
        <mxCell id="P_YrPQooRFVnnNei9Mit-110" value="Button 2" style="text;strokeColor=inherit;align=center;verticalAlign=middle;spacingLeft=10;spacingRight=10;overflow=hidden;points=[[0,0.5],[1,0.5]];portConstraint=eastwest;rotatable=0;whiteSpace=wrap;html=1;fillColor=inherit;fontColor=inherit;fontSize=17;" vertex="1" parent="P_YrPQooRFVnnNei9Mit-108">
          <mxGeometry x="125" width="125" height="25" as="geometry" />
        </mxCell>
        <mxCell id="P_YrPQooRFVnnNei9Mit-111" value="Button 3" style="text;strokeColor=inherit;align=center;verticalAlign=middle;spacingLeft=10;spacingRight=10;overflow=hidden;points=[[0,0.5],[1,0.5]];portConstraint=eastwest;rotatable=0;whiteSpace=wrap;html=1;fillColor=inherit;fontColor=inherit;fontSize=17;" vertex="1" parent="P_YrPQooRFVnnNei9Mit-108">
          <mxGeometry x="250" width="125" height="25" as="geometry" />
        </mxCell>
        <mxCell id="P_YrPQooRFVnnNei9Mit-112" value="Button 4" style="text;strokeColor=inherit;align=center;verticalAlign=middle;spacingLeft=10;spacingRight=10;overflow=hidden;points=[[0,0.5],[1,0.5]];portConstraint=eastwest;rotatable=0;whiteSpace=wrap;html=1;fillColor=inherit;fontColor=inherit;fontSize=17;" vertex="1" parent="P_YrPQooRFVnnNei9Mit-108">
          <mxGeometry x="375" width="125" height="25" as="geometry" />
        </mxCell>
        <mxCell id="P_YrPQooRFVnnNei9Mit-115" value="" style="html=1;verticalLabelPosition=bottom;align=center;labelBackgroundColor=#ffffff;verticalAlign=top;strokeWidth=2;strokeColor=#0080F0;shadow=0;dashed=0;shape=mxgraph.ios7.icons.video_conversation;" vertex="1" parent="P_YrPQooRFVnnNei9Mit-43">
          <mxGeometry x="355" y="415" width="320" height="160" as="geometry" />
        </mxCell>
        <mxCell id="P_YrPQooRFVnnNei9Mit-116" value="VIDEO TERROR PARK TRAILER" style="text;html=1;align=center;verticalAlign=middle;whiteSpace=wrap;rounded=0;" vertex="1" parent="P_YrPQooRFVnnNei9Mit-43">
          <mxGeometry x="420" y="440" width="100" height="110" as="geometry" />
        </mxCell>
        <mxCell id="P_YrPQooRFVnnNei9Mit-118" style="edgeStyle=orthogonalEdgeStyle;rounded=0;orthogonalLoop=1;jettySize=auto;html=1;exitX=0.5;exitY=1;exitDx=0;exitDy=0;" edge="1" parent="P_YrPQooRFVnnNei9Mit-43" source="P_YrPQooRFVnnNei9Mit-116" target="P_YrPQooRFVnnNei9Mit-116">
          <mxGeometry relative="1" as="geometry" />
        </mxCell>
        <mxCell id="iEJvDpS68jFy7bRB699J-30" value="" style="group" vertex="1" connectable="0" parent="P_YrPQooRFVnnNei9Mit-43">
          <mxGeometry y="130" width="1020" height="160" as="geometry" />
        </mxCell>
        <mxCell id="iEJvDpS68jFy7bRB699J-31" value="" style="group" vertex="1" connectable="0" parent="iEJvDpS68jFy7bRB699J-30">
          <mxGeometry width="1020" height="160" as="geometry" />
        </mxCell>
        <mxCell id="iEJvDpS68jFy7bRB699J-4" value="" style="verticalLabelPosition=bottom;shadow=0;dashed=0;align=center;html=1;verticalAlign=top;strokeWidth=1;shape=mxgraph.mockup.markup.line;strokeColor=#999999;" vertex="1" parent="iEJvDpS68jFy7bRB699J-31">
          <mxGeometry x="10" width="1000" height="20" as="geometry" />
        </mxCell>
        <mxCell id="iEJvDpS68jFy7bRB699J-6" value="" style="verticalLabelPosition=bottom;shadow=0;dashed=0;align=center;html=1;verticalAlign=top;strokeWidth=1;shape=mxgraph.mockup.markup.line;strokeColor=#999999;direction=north;" vertex="1" parent="iEJvDpS68jFy7bRB699J-31">
          <mxGeometry y="10" width="20" height="140" as="geometry" />
        </mxCell>
        <mxCell id="iEJvDpS68jFy7bRB699J-7" value="" style="verticalLabelPosition=bottom;shadow=0;dashed=0;align=center;html=1;verticalAlign=top;strokeWidth=1;shape=mxgraph.mockup.markup.line;strokeColor=#999999;" vertex="1" parent="iEJvDpS68jFy7bRB699J-31">
          <mxGeometry x="10" y="140" width="1000" height="20" as="geometry" />
        </mxCell>
        <mxCell id="iEJvDpS68jFy7bRB699J-29" value="" style="verticalLabelPosition=bottom;shadow=0;dashed=0;align=center;html=1;verticalAlign=top;strokeWidth=1;shape=mxgraph.mockup.markup.line;strokeColor=#999999;direction=north;" vertex="1" parent="iEJvDpS68jFy7bRB699J-31">
          <mxGeometry x="1000" y="10" width="20" height="140" as="geometry" />
        </mxCell>
        <mxCell id="iEJvDpS68jFy7bRB699J-37" value="" style="verticalLabelPosition=bottom;shadow=0;dashed=0;align=center;html=1;verticalAlign=top;strokeWidth=1;shape=mxgraph.mockup.graphics.simpleIcon;strokeColor=#999999;fillColor=#CCCCCC;" vertex="1" parent="P_YrPQooRFVnnNei9Mit-43">
          <mxGeometry x="300" y="785" width="140" height="225" as="geometry" />
        </mxCell>
        <mxCell id="iEJvDpS68jFy7bRB699J-41" value="TICKETS" style="text;strokeColor=none;fillColor=none;html=1;fontSize=24;fontStyle=1;verticalAlign=middle;align=center;" vertex="1" parent="P_YrPQooRFVnnNei9Mit-43">
          <mxGeometry x="470" y="730" width="100" height="40" as="geometry" />
        </mxCell>
        <mxCell id="iEJvDpS68jFy7bRB699J-45" value="" style="verticalLabelPosition=bottom;shadow=0;dashed=0;align=center;html=1;verticalAlign=top;strokeWidth=1;shape=mxgraph.mockup.graphics.simpleIcon;strokeColor=#999999;fillColor=#CCCCCC;" vertex="1" parent="P_YrPQooRFVnnNei9Mit-43">
          <mxGeometry x="450" y="785" width="140" height="225" as="geometry" />
        </mxCell>
        <mxCell id="iEJvDpS68jFy7bRB699J-46" value="" style="verticalLabelPosition=bottom;shadow=0;dashed=0;align=center;html=1;verticalAlign=top;strokeWidth=1;shape=mxgraph.mockup.graphics.simpleIcon;strokeColor=#999999;fillColor=#CCCCCC;" vertex="1" parent="P_YrPQooRFVnnNei9Mit-43">
          <mxGeometry x="600" y="785" width="140" height="225" as="geometry" />
        </mxCell>
        <mxCell id="iEJvDpS68jFy7bRB699J-54" value="" style="verticalLabelPosition=bottom;shadow=0;dashed=0;align=center;html=1;verticalAlign=top;strokeWidth=1;shape=mxgraph.mockup.graphics.simpleIcon;strokeColor=#999999;fillColor=#F19C99;" vertex="1" parent="P_YrPQooRFVnnNei9Mit-43">
          <mxGeometry x="160" y="1210" width="130" height="130" as="geometry" />
        </mxCell>
        <mxCell id="iEJvDpS68jFy7bRB699J-55" value="" style="verticalLabelPosition=bottom;shadow=0;dashed=0;align=center;html=1;verticalAlign=top;strokeWidth=1;shape=mxgraph.mockup.graphics.simpleIcon;strokeColor=#999999;fillColor=#F19C99;" vertex="1" parent="P_YrPQooRFVnnNei9Mit-43">
          <mxGeometry x="300" y="1210" width="130" height="130" as="geometry" />
        </mxCell>
        <mxCell id="iEJvDpS68jFy7bRB699J-57" value="" style="verticalLabelPosition=bottom;shadow=0;dashed=0;align=center;html=1;verticalAlign=top;strokeWidth=1;shape=mxgraph.mockup.graphics.simpleIcon;strokeColor=#999999;fillColor=#F19C99;" vertex="1" parent="P_YrPQooRFVnnNei9Mit-43">
          <mxGeometry x="580" y="1210" width="130" height="130" as="geometry" />
        </mxCell>
        <mxCell id="iEJvDpS68jFy7bRB699J-58" value="" style="verticalLabelPosition=bottom;shadow=0;dashed=0;align=center;html=1;verticalAlign=top;strokeWidth=1;shape=mxgraph.mockup.graphics.simpleIcon;strokeColor=#999999;fillColor=#F19C99;" vertex="1" parent="P_YrPQooRFVnnNei9Mit-43">
          <mxGeometry x="720" y="1210" width="130" height="130" as="geometry" />
        </mxCell>
        <mxCell id="iEJvDpS68jFy7bRB699J-32" value="" style="verticalLabelPosition=bottom;shadow=0;dashed=0;align=center;html=1;verticalAlign=top;strokeWidth=1;shape=mxgraph.mockup.markup.line;strokeColor=#999999;" vertex="1" parent="P_YrPQooRFVnnNei9Mit-43">
          <mxGeometry x="10" y="680" width="1000" height="20" as="geometry" />
        </mxCell>
        <mxCell id="iEJvDpS68jFy7bRB699J-33" value="" style="verticalLabelPosition=bottom;shadow=0;dashed=0;align=center;html=1;verticalAlign=top;strokeWidth=1;shape=mxgraph.mockup.markup.line;strokeColor=#999999;" vertex="1" parent="P_YrPQooRFVnnNei9Mit-43">
          <mxGeometry x="10" y="1040" width="1000" height="20" as="geometry" />
        </mxCell>
        <mxCell id="iEJvDpS68jFy7bRB699J-34" value="" style="verticalLabelPosition=bottom;shadow=0;dashed=0;align=center;html=1;verticalAlign=top;strokeWidth=1;shape=mxgraph.mockup.markup.line;strokeColor=#999999;direction=north;" vertex="1" parent="P_YrPQooRFVnnNei9Mit-43">
          <mxGeometry x="1000" y="690" width="20" height="360" as="geometry" />
        </mxCell>
        <mxCell id="iEJvDpS68jFy7bRB699J-47" value="" style="verticalLabelPosition=bottom;shadow=0;dashed=0;align=center;html=1;verticalAlign=top;strokeWidth=1;shape=mxgraph.mockup.markup.line;strokeColor=#999999;direction=north;" vertex="1" parent="P_YrPQooRFVnnNei9Mit-43">
          <mxGeometry y="690" width="20" height="360" as="geometry" />
        </mxCell>
        <mxCell id="iEJvDpS68jFy7bRB699J-49" value="" style="group" vertex="1" connectable="0" parent="P_YrPQooRFVnnNei9Mit-43">
          <mxGeometry y="1050" width="1020" height="380" as="geometry" />
        </mxCell>
        <mxCell id="iEJvDpS68jFy7bRB699J-50" value="" style="verticalLabelPosition=bottom;shadow=0;dashed=0;align=center;html=1;verticalAlign=top;strokeWidth=1;shape=mxgraph.mockup.markup.line;strokeColor=#999999;" vertex="1" parent="iEJvDpS68jFy7bRB699J-49">
          <mxGeometry x="10" width="1000" height="20" as="geometry" />
        </mxCell>
        <mxCell id="iEJvDpS68jFy7bRB699J-51" value="" style="verticalLabelPosition=bottom;shadow=0;dashed=0;align=center;html=1;verticalAlign=top;strokeWidth=1;shape=mxgraph.mockup.markup.line;strokeColor=#999999;" vertex="1" parent="iEJvDpS68jFy7bRB699J-49">
          <mxGeometry x="10" y="360" width="1000" height="20" as="geometry" />
        </mxCell>
        <mxCell id="iEJvDpS68jFy7bRB699J-52" value="" style="verticalLabelPosition=bottom;shadow=0;dashed=0;align=center;html=1;verticalAlign=top;strokeWidth=1;shape=mxgraph.mockup.markup.line;strokeColor=#999999;direction=north;" vertex="1" parent="iEJvDpS68jFy7bRB699J-49">
          <mxGeometry x="1000" y="10" width="20" height="360" as="geometry" />
        </mxCell>
        <mxCell id="iEJvDpS68jFy7bRB699J-53" value="" style="verticalLabelPosition=bottom;shadow=0;dashed=0;align=center;html=1;verticalAlign=top;strokeWidth=1;shape=mxgraph.mockup.markup.line;strokeColor=#999999;direction=north;" vertex="1" parent="iEJvDpS68jFy7bRB699J-49">
          <mxGeometry y="10" width="20" height="360" as="geometry" />
        </mxCell>
        <mxCell id="iEJvDpS68jFy7bRB699J-102" value="ATRACCIONES" style="text;strokeColor=none;fillColor=none;html=1;fontSize=24;fontStyle=1;verticalAlign=middle;align=center;" vertex="1" parent="iEJvDpS68jFy7bRB699J-49">
          <mxGeometry x="385" y="80" width="270" height="50" as="geometry" />
        </mxCell>
        <mxCell id="iEJvDpS68jFy7bRB699J-56" value="" style="verticalLabelPosition=bottom;shadow=0;dashed=0;align=center;html=1;verticalAlign=top;strokeWidth=1;shape=mxgraph.mockup.graphics.simpleIcon;strokeColor=#999999;fillColor=#F19C99;" vertex="1" parent="P_YrPQooRFVnnNei9Mit-43">
          <mxGeometry x="440" y="1210" width="130" height="130" as="geometry" />
        </mxCell>
        <mxCell id="iEJvDpS68jFy7bRB699J-103" value="" style="group" vertex="1" connectable="0" parent="P_YrPQooRFVnnNei9Mit-43">
          <mxGeometry y="1430" width="1020" height="380" as="geometry" />
        </mxCell>
        <mxCell id="iEJvDpS68jFy7bRB699J-104" value="" style="verticalLabelPosition=bottom;shadow=0;dashed=0;align=center;html=1;verticalAlign=top;strokeWidth=1;shape=mxgraph.mockup.markup.line;strokeColor=#999999;" vertex="1" parent="iEJvDpS68jFy7bRB699J-103">
          <mxGeometry x="10" width="1000" height="20" as="geometry" />
        </mxCell>
        <mxCell id="iEJvDpS68jFy7bRB699J-105" value="" style="verticalLabelPosition=bottom;shadow=0;dashed=0;align=center;html=1;verticalAlign=top;strokeWidth=1;shape=mxgraph.mockup.markup.line;strokeColor=#999999;" vertex="1" parent="iEJvDpS68jFy7bRB699J-103">
          <mxGeometry x="10" y="360" width="1000" height="20" as="geometry" />
        </mxCell>
        <mxCell id="iEJvDpS68jFy7bRB699J-106" value="" style="verticalLabelPosition=bottom;shadow=0;dashed=0;align=center;html=1;verticalAlign=top;strokeWidth=1;shape=mxgraph.mockup.markup.line;strokeColor=#999999;direction=north;" vertex="1" parent="iEJvDpS68jFy7bRB699J-103">
          <mxGeometry x="1000" y="10" width="20" height="360" as="geometry" />
        </mxCell>
        <mxCell id="iEJvDpS68jFy7bRB699J-107" value="" style="verticalLabelPosition=bottom;shadow=0;dashed=0;align=center;html=1;verticalAlign=top;strokeWidth=1;shape=mxgraph.mockup.markup.line;strokeColor=#999999;direction=north;" vertex="1" parent="iEJvDpS68jFy7bRB699J-103">
          <mxGeometry y="10" width="20" height="360" as="geometry" />
        </mxCell>
        <mxCell id="iEJvDpS68jFy7bRB699J-108" value="CONTACTO" style="text;strokeColor=none;fillColor=none;html=1;fontSize=24;fontStyle=1;verticalAlign=middle;align=center;" vertex="1" parent="P_YrPQooRFVnnNei9Mit-43">
          <mxGeometry x="385" y="1470" width="270" height="50" as="geometry" />
        </mxCell>
        <mxCell id="iEJvDpS68jFy7bRB699J-115" value="" style="strokeWidth=1;shadow=0;dashed=0;align=center;html=1;shape=mxgraph.mockup.forms.anchor;align=right;spacingRight=2;fontColor=#666666;" vertex="1" parent="P_YrPQooRFVnnNei9Mit-43">
          <mxGeometry x="310" y="1978" width="51.25" height="16.8" as="geometry" />
        </mxCell>
        <mxCell id="iEJvDpS68jFy7bRB699J-117" value="" style="strokeWidth=1;shadow=0;dashed=0;align=center;html=1;shape=mxgraph.mockup.forms.anchor;align=right;spacingRight=2;fontColor=#666666;" vertex="1" parent="P_YrPQooRFVnnNei9Mit-43">
          <mxGeometry x="310" y="2010.6666666666667" width="51.25" height="16.8" as="geometry" />
        </mxCell>
        <mxCell id="iEJvDpS68jFy7bRB699J-129" value="" style="group" vertex="1" connectable="0" parent="P_YrPQooRFVnnNei9Mit-43">
          <mxGeometry x="320" y="1540" width="410" height="216.67000000000007" as="geometry" />
        </mxCell>
        <mxCell id="iEJvDpS68jFy7bRB699J-109" value="Nombre" style="strokeWidth=1;shadow=0;dashed=0;align=center;html=1;shape=mxgraph.mockup.forms.anchor;align=right;spacingRight=2;fontColor=#666666;" vertex="1" parent="iEJvDpS68jFy7bRB699J-129">
          <mxGeometry width="51.25" height="16.8" as="geometry" />
        </mxCell>
        <mxCell id="iEJvDpS68jFy7bRB699J-110" value="John Doe" style="strokeWidth=1;shadow=0;dashed=0;align=center;html=1;shape=mxgraph.mockup.forms.rrect;fillColor=#ffffff;rSize=0;fontColor=#666666;align=left;spacingLeft=3;strokeColor=#999999;" vertex="1" parent="iEJvDpS68jFy7bRB699J-129">
          <mxGeometry x="51.25" width="358.75" height="16.8" as="geometry" />
        </mxCell>
        <mxCell id="iEJvDpS68jFy7bRB699J-111" value="Email" style="strokeWidth=1;shadow=0;dashed=0;align=center;html=1;shape=mxgraph.mockup.forms.anchor;align=right;spacingRight=2;fontColor=#666666;" vertex="1" parent="iEJvDpS68jFy7bRB699J-129">
          <mxGeometry y="32.66666666666674" width="51.25" height="16.8" as="geometry" />
        </mxCell>
        <mxCell id="iEJvDpS68jFy7bRB699J-112" value="john@jgraph.com" style="strokeWidth=1;shadow=0;dashed=0;align=center;html=1;shape=mxgraph.mockup.forms.rrect;fillColor=#ffffff;rSize=0;fontColor=#666666;align=left;spacingLeft=3;strokeColor=#999999;" vertex="1" parent="iEJvDpS68jFy7bRB699J-129">
          <mxGeometry x="51.25" y="32.66666666666674" width="358.75" height="16.8" as="geometry" />
        </mxCell>
        <mxCell id="iEJvDpS68jFy7bRB699J-113" value="Motivo" style="strokeWidth=1;shadow=0;dashed=0;align=center;html=1;shape=mxgraph.mockup.forms.anchor;align=right;spacingRight=2;fontColor=#666666;" vertex="1" parent="iEJvDpS68jFy7bRB699J-129">
          <mxGeometry y="65.33333333333326" width="51.25" height="16.8" as="geometry" />
        </mxCell>
        <mxCell id="iEJvDpS68jFy7bRB699J-114" value="Selecciona motivo" style="strokeWidth=1;shadow=0;dashed=0;align=center;html=1;shape=mxgraph.mockup.forms.rrect;fillColor=#ffffff;rSize=0;fontColor=#666666;align=left;spacingLeft=3;strokeColor=#999999;" vertex="1" parent="iEJvDpS68jFy7bRB699J-129">
          <mxGeometry x="51.25" y="65.33333333333326" width="358.75" height="16.8" as="geometry" />
        </mxCell>
        <mxCell id="iEJvDpS68jFy7bRB699J-119" value="Escriba el mensaje.." style="strokeWidth=1;shadow=0;dashed=0;align=center;html=1;shape=mxgraph.mockup.forms.rrect;fillColor=#ffffff;rSize=0;fontColor=#666666;align=left;spacingLeft=3;strokeColor=#999999;verticalAlign=top;whiteSpace=wrap;" vertex="1" parent="iEJvDpS68jFy7bRB699J-129">
          <mxGeometry y="100.00333333333333" width="410" height="116.66666666666667" as="geometry" />
        </mxCell>
        <mxCell id="iEJvDpS68jFy7bRB699J-130" value="" style="group" vertex="1" connectable="0" parent="P_YrPQooRFVnnNei9Mit-43">
          <mxGeometry x="5" y="1820" width="1020" height="160" as="geometry" />
        </mxCell>
        <mxCell id="iEJvDpS68jFy7bRB699J-131" value="" style="verticalLabelPosition=bottom;shadow=0;dashed=0;align=center;html=1;verticalAlign=top;strokeWidth=1;shape=mxgraph.mockup.markup.line;strokeColor=#999999;" vertex="1" parent="iEJvDpS68jFy7bRB699J-130">
          <mxGeometry x="10" width="1000" height="8.421052631578947" as="geometry" />
        </mxCell>
        <mxCell id="iEJvDpS68jFy7bRB699J-132" value="" style="verticalLabelPosition=bottom;shadow=0;dashed=0;align=center;html=1;verticalAlign=top;strokeWidth=1;shape=mxgraph.mockup.markup.line;strokeColor=#999999;" vertex="1" parent="iEJvDpS68jFy7bRB699J-130">
          <mxGeometry x="10" y="151.57894736842104" width="1000" height="8.421052631578947" as="geometry" />
        </mxCell>
        <mxCell id="iEJvDpS68jFy7bRB699J-133" value="" style="verticalLabelPosition=bottom;shadow=0;dashed=0;align=center;html=1;verticalAlign=top;strokeWidth=1;shape=mxgraph.mockup.markup.line;strokeColor=#999999;direction=north;" vertex="1" parent="iEJvDpS68jFy7bRB699J-130">
          <mxGeometry x="1000" y="4.2105263157894735" width="20" height="151.57894736842104" as="geometry" />
        </mxCell>
        <mxCell id="iEJvDpS68jFy7bRB699J-134" value="" style="verticalLabelPosition=bottom;shadow=0;dashed=0;align=center;html=1;verticalAlign=top;strokeWidth=1;shape=mxgraph.mockup.markup.line;strokeColor=#999999;direction=north;" vertex="1" parent="iEJvDpS68jFy7bRB699J-130">
          <mxGeometry y="4.2105263157894735" width="20" height="151.57894736842104" as="geometry" />
        </mxCell>
        <mxCell id="iEJvDpS68jFy7bRB699J-135" value="FOOTER" style="text;strokeColor=none;fillColor=none;html=1;fontSize=24;fontStyle=1;verticalAlign=middle;align=center;" vertex="1" parent="P_YrPQooRFVnnNei9Mit-43">
          <mxGeometry x="370" y="1840" width="270" height="50" as="geometry" />
        </mxCell>
      </root>
    </mxGraphModel>
  </diagram>
</mxfile>
